<svg width="24" height="25" viewBox="0 0 24 25" fill="none" xmlns="http://www.w3.org/2000/svg">
<g clip-path="url(#clip0_75_54)">
<path d="M21 4.45851C21 2.8361 19.6596 1.5 18.0319 1.5H10.4681C9.70213 1.5 8.93617 1.78631 8.45745 2.35892L3.95745 6.55809C3.38298 7.03527 3 7.89419 3 8.75311V21.5415C3 23.1639 4.34043 24.5 5.96809 24.5H18.0319C19.6596 24.5 21 23.1639 21 21.5415V4.45851ZM4.91489 8.65768C4.91489 8.37137 5.10638 8.08506 5.29787 7.89419L9.70213 3.69502C9.79787 3.59959 10.0851 3.40871 10.4681 3.40871H10.5638V7.03527C10.5638 7.98963 9.79787 8.84855 8.74468 8.84855L4.91489 8.65768ZM17.8404 16.4834L14.2021 20.5871C14.0106 20.778 13.7234 20.8734 13.5319 20.8734H13.4362C13.1489 20.8734 12.8617 20.6826 12.6702 20.4917L10.6596 17.4378L7.59575 20.6826C7.21277 21.0643 6.6383 21.0643 6.25532 20.6826C5.87234 20.3008 5.87234 19.7282 6.25532 19.3465L10.1809 15.2427C10.3723 15.0519 10.6596 14.9564 10.9468 14.9564C11.234 14.9564 11.5213 15.1473 11.7128 15.3382L13.7234 18.3921L16.5 15.2427C16.883 14.861 17.4574 14.861 17.8404 15.1473C18.2234 15.4336 18.2234 16.1017 17.8404 16.4834ZM17.5532 10.6618H13.4362C12.8617 10.6618 12.4787 10.2801 12.4787 9.70747C12.4787 9.13486 12.8617 8.75311 13.4362 8.75311H17.5532C18.0319 8.75311 18.5106 9.13486 18.5106 9.70747C18.5106 10.2801 18.1277 10.6618 17.5532 10.6618ZM17.5532 6.8444H13.4362C12.8617 6.8444 12.4787 6.46266 12.4787 5.89004C12.4787 5.31743 12.8617 4.93568 13.4362 4.93568H17.5532C18.0319 4.93568 18.5106 5.31743 18.5106 5.89004C18.5106 6.46266 18.1277 6.8444 17.5532 6.8444Z" fill="white"/>
</g>
<defs>
<clipPath id="clip0_75_54">
<rect width="24" height="24" fill="white" transform="translate(0 0.5)"/>
</clipPath>
</defs>
</svg>
