<svg width="22" height="16" viewBox="0 0 22 16" fill="none" xmlns="http://www.w3.org/2000/svg">
<path fill-rule="evenodd" clip-rule="evenodd" d="M15.1226 4.26442C15.1262 4.8147 15.0208 5.36023 14.8126 5.86961C14.6044 6.37899 14.2975 6.84214 13.9095 7.2324C13.5216 7.62266 13.0603 7.93232 12.5521 8.14353C12.044 8.35474 11.4991 8.46334 10.9488 8.46306C10.3984 8.46347 9.85342 8.35497 9.34517 8.14382C8.83692 7.93266 8.37547 7.62303 7.98741 7.23276C7.59935 6.84248 7.29235 6.37928 7.08409 5.86984C6.87583 5.3604 6.77043 4.81478 6.77396 4.26442C6.77043 3.71403 6.87587 3.16838 7.0842 2.65893C7.29253 2.14947 7.59964 1.68629 7.98782 1.29609C8.376 0.90588 8.83757 0.596362 9.34593 0.385376C9.85429 0.174391 10.3994 0.0661099 10.9498 0.0667755C11.5001 0.0662408 12.0451 0.174618 12.5533 0.385663C13.0616 0.596707 13.523 0.906245 13.9111 1.29644C14.2992 1.68663 14.6062 2.14977 14.8145 2.65916C15.0228 3.16855 15.1282 3.71411 15.1246 4.26442H15.1226ZM10.9498 15.9332C7.54744 15.9332 4.64291 15.3937 4.64291 13.2359C4.64291 11.0771 7.5286 10.5188 10.9498 10.5188C14.3521 10.5188 17.2577 11.0582 17.2577 13.216C17.2577 15.3739 14.371 15.9332 10.9498 15.9332ZM16.9076 4.34078C16.9113 5.48529 16.5714 6.60456 15.9318 7.55372C15.917 7.57562 15.9079 7.60093 15.9054 7.6273C15.903 7.65366 15.9073 7.68021 15.9178 7.70448C15.9284 7.72874 15.945 7.74992 15.966 7.76604C15.987 7.78217 16.0118 7.79271 16.0379 7.79668C16.1963 7.82327 16.3564 7.83851 16.5169 7.84229C18.1462 7.88592 19.6089 6.83081 20.0125 5.24318C20.6114 2.88405 18.8542 0.766879 16.6161 0.766879C16.3731 0.766879 16.1401 0.792662 15.914 0.83927C15.8832 0.846211 15.8505 0.860094 15.8327 0.888852C15.8109 0.922568 15.8267 0.968184 15.8485 0.997934C16.5403 1.97474 16.9105 3.14284 16.9076 4.33979V4.34078ZM19.6059 9.50033C20.7007 9.71552 21.4206 10.1548 21.7191 10.7934C21.8436 11.0517 21.9082 11.3347 21.9082 11.6215C21.9082 11.9082 21.8436 12.1912 21.7191 12.4495C21.2629 13.4392 19.7913 13.7575 19.2201 13.8398C19.1011 13.8576 19.0069 13.7545 19.0188 13.6355C19.3114 10.8916 16.9879 9.58958 16.387 9.29109C16.3612 9.27721 16.3553 9.25737 16.3572 9.24448C16.3602 9.23556 16.3701 9.22167 16.39 9.2187C17.691 9.1949 19.0892 9.3734 19.6059 9.50033ZM5.48383 7.8413C5.64646 7.83733 5.80611 7.82246 5.96279 7.79568C5.98888 7.79157 6.01351 7.78093 6.03439 7.76475C6.05526 7.74857 6.07171 7.72737 6.0822 7.70313C6.09269 7.67889 6.09687 7.65239 6.09438 7.62609C6.09188 7.5998 6.08277 7.57456 6.06791 7.55273C5.42836 6.60357 5.08844 5.4843 5.09212 4.33979C5.09212 3.10023 5.47887 1.94397 6.1512 0.99595C6.17302 0.966201 6.1879 0.921577 6.16707 0.886869C6.15021 0.860095 6.1165 0.84522 6.08576 0.837286C5.85409 0.789696 5.61819 0.765774 5.38169 0.765888C3.14552 0.765888 1.38832 2.88306 1.98727 5.24219C2.39087 6.82883 3.85356 7.88394 5.48283 7.8413H5.48383ZM5.6415 9.24349C5.64447 9.25638 5.63852 9.27621 5.61373 9.2901C5.0118 9.58958 2.68837 10.8906 2.97991 13.6335C2.9928 13.7535 2.8986 13.8556 2.78059 13.8388C2.20841 13.7565 0.737796 13.4382 0.281638 12.4485C0.156718 12.1903 0.0918274 11.9073 0.0918274 11.6205C0.0918274 11.3337 0.156718 11.0506 0.281638 10.7924C0.579132 10.1538 1.29907 9.71452 2.39385 9.49834C2.91149 9.37241 4.30773 9.19391 5.61076 9.21771C5.63059 9.22068 5.6415 9.23457 5.6415 9.24349Z" fill="white"/>
</svg>
