<svg width="22" height="24" viewBox="0 0 22 24" fill="none" xmlns="http://www.w3.org/2000/svg">
<path d="M16.1865 10.3849C16.894 10.2526 17.5467 9.74128 17.653 8.60736C17.7406 7.67927 17.4684 7.20119 17.0664 6.95754C18.1823 2.98114 15.1045 2.20272 15.1045 2.20272C15.1045 2.20272 12.8042 -1.20876 8.31654 1.18525C7.74572 1.48967 6.85823 2.07298 6.32948 2.67519C5.48055 3.46485 4.90272 4.74843 4.81216 6.8273C4.26412 7.01015 3.83352 7.47292 3.94044 8.60685C4.05262 9.79236 4.76016 10.297 5.5045 10.4002C6.50943 12.5398 8.49357 14.303 10.8417 14.303C13.1951 14.303 15.1833 12.5317 16.1865 10.3849ZM10.8417 13.3055C8.12666 13.3055 5.94036 10.0825 5.94036 7.41367C5.94036 7.04795 5.9538 6.7088 5.97951 6.39416C9.95071 6.54586 12.2994 5.15399 13.5778 3.94651C14.7901 5.0028 15.42 6.33695 15.7419 7.32735L15.7425 7.41316C15.743 10.0825 13.5573 13.3055 10.8417 13.3055ZM9.28641 17.3406L9.60074 16.2031C9.63696 16.0719 9.71467 15.9595 9.81984 15.8732C9.78752 15.8531 9.75595 15.8322 9.72519 15.8103L6.91724 13.778L5.20828 14.1273C2.31445 14.7224 0.275391 16.859 0.275391 19.3097V22.5276C0.275391 23.1609 0.919828 23.6661 1.69105 23.6661H8.92475L10.0278 18.1691C9.91208 18.1686 9.79798 18.1451 9.69407 18.1005C9.59015 18.056 9.49912 17.9914 9.4278 17.9117C9.35648 17.832 9.30671 17.7392 9.28222 17.6403C9.25773 17.5414 9.25917 17.439 9.28641 17.3406ZM16.3723 14.1273L14.6867 13.778L11.8817 15.8103C11.8513 15.8322 11.8201 15.8531 11.7882 15.8732C11.894 15.9595 11.9717 16.0719 12.0085 16.2031L12.3222 17.3406C12.3494 17.439 12.3509 17.5415 12.3264 17.6404C12.3019 17.7393 12.2521 17.8321 12.1808 17.9119C12.1095 17.9916 12.0185 18.0562 11.9146 18.1008C11.8107 18.1455 11.6966 18.169 11.5808 18.1696L12.6839 23.6666H19.9176C20.6888 23.6666 21.2754 23.162 21.2754 22.5281V19.3102C21.2766 16.859 19.2661 14.7224 16.3723 14.1273Z" fill="white"/>
</svg>
