<svg width="25" height="20" viewBox="0 0 25 20" fill="none" xmlns="http://www.w3.org/2000/svg">
<path d="M8.25664 10.6251L4.26447 11.8425C4.07317 11.9018 3.91664 12.0409 3.83491 12.2244L1.01891 18.5287C0.774732 19.075 1.28778 19.6548 1.86012 19.4793L7.54638 17.6917C7.6709 17.6534 7.78223 17.5811 7.86779 17.4829C7.95335 17.3846 8.00973 17.2644 8.03056 17.1359L9.15073 11.4011C9.23334 10.891 8.75003 10.4713 8.25664 10.6251ZM14.961 14.3525L13.5406 16.2425C13.493 16.2973 13.434 16.341 13.3677 16.3706C13.3014 16.4001 13.2294 16.4148 13.1568 16.4136C13.0842 16.4123 13.0128 16.3952 12.9475 16.3634C12.8823 16.3316 12.8248 16.2858 12.7791 16.2294L10.4052 13.0105C10.137 12.6793 9.60447 12.8157 9.52969 13.2352L8.81664 17.2402C8.79377 17.3677 8.82168 17.4992 8.89441 17.6064C8.96713 17.7136 9.07891 17.7882 9.20586 17.8141L15.8399 19.1663C16.1775 19.2352 16.4812 18.9468 16.4297 18.6054L15.8269 14.604C15.7631 14.1852 15.2384 14.0331 14.961 14.3525ZM23.9688 16.2105L20.6349 10.888C20.5128 10.6932 20.3352 10.5395 20.1249 10.4466C19.9146 10.3538 19.6813 10.326 19.4551 10.367L17.8514 10.707C17.7004 10.7344 17.5564 10.7918 17.4279 10.8756C17.2994 10.9595 17.1889 11.0682 17.1029 11.1953L16.4812 12.1171C16.3187 12.3583 16.2537 12.6522 16.2993 12.9395L17.1116 18.0635C17.2146 18.7148 17.8436 19.1468 18.4885 19.0077L23.2356 17.9452C24.0153 17.7779 24.3921 16.8866 23.9688 16.2105ZM8.6189 8.87724L8.65299 8.92872L10.1798 11.1946L11.9464 13.8091L13.1594 15.6054L14.3732 13.8084L15.429 12.2461L16.1558 11.1692C16.1566 11.1685 16.1566 11.1679 16.1573 11.167L17.7015 8.87568H17.7008C18.2833 7.99601 18.5933 6.96409 18.5921 5.90907C18.5921 2.91568 16.1601 0.488724 13.1594 0.488724C10.1601 0.488724 7.7276 2.91568 7.7276 5.90907C7.7266 6.96475 8.03713 7.99725 8.6203 8.87724H8.6189ZM13.1791 2.38733C14.8906 2.38733 16.2834 3.77933 16.2834 5.49098C16.2834 7.20264 14.8906 8.59533 13.1791 8.59533C11.4674 8.59533 10.0747 7.20264 10.0747 5.49098C10.0747 3.77933 11.4674 2.38733 13.1791 2.38733Z" fill="white"/>
</svg>
