<svg width="18" height="19" viewBox="0 0 18 19" fill="none" xmlns="http://www.w3.org/2000/svg">
<path fill-rule="evenodd" clip-rule="evenodd" d="M6.78455 4.49482H15.2146C15.5101 4.49482 15.7501 4.74007 15.7501 5.04232C15.7501 5.34682 15.5101 5.59207 15.2146 5.59207H2.7848C2.71363 5.59119 2.64332 5.57629 2.57791 5.54821C2.5125 5.52013 2.45327 5.47943 2.4036 5.42844C2.35393 5.37745 2.31481 5.31717 2.28846 5.25104C2.26211 5.18492 2.24906 5.11425 2.25005 5.04307C2.25005 4.74007 2.4893 4.49482 2.7848 4.49482H5.1803C5.33704 4.49301 5.48831 4.43694 5.60837 4.33617C5.72843 4.23539 5.80986 4.09612 5.8388 3.94207L6.0173 3.02707C6.1973 2.33257 6.78305 1.87207 7.44905 1.87207H10.5511C11.2171 1.87207 11.8021 2.33257 11.9746 2.99257C12.0123 3.13187 11.9939 3.28043 11.9232 3.40626C11.8525 3.53209 11.7352 3.62512 11.5966 3.66532C11.528 3.68352 11.4565 3.68787 11.3862 3.67813C11.316 3.66838 11.2483 3.64473 11.1873 3.60857C11.1263 3.5724 11.0731 3.52443 11.0308 3.46747C10.9885 3.41051 10.958 3.3457 10.9411 3.27682C10.919 3.18981 10.8688 3.11253 10.7983 3.05704C10.7277 3.00155 10.6408 2.97097 10.5511 2.97007H7.44905C7.3593 2.97097 7.27237 3.00155 7.20182 3.05704C7.13127 3.11253 7.08107 3.18981 7.05905 3.27682L6.8888 4.15657C6.8648 4.27507 6.8288 4.38607 6.78455 4.49407V4.49482ZM6.1163 15.7448C5.42855 15.7298 5.0393 15.3473 4.9598 14.6071C4.72955 12.4898 4.33655 7.47607 4.3328 7.42582C4.32166 7.28308 4.25504 7.15039 4.14723 7.05618C4.03942 6.96197 3.899 6.91374 3.75605 6.92182C3.61292 6.9357 3.48109 7.00563 3.38934 7.11635C3.29758 7.22708 3.25335 7.3696 3.2663 7.51282C3.27005 7.56382 3.6638 12.5948 3.89555 14.7293C4.03355 16.0066 4.8758 16.8158 6.0938 16.8421H6.10505C6.24679 16.8403 6.3822 16.7831 6.48229 16.6828C6.58238 16.5824 6.63919 16.4468 6.64055 16.3051C6.645 16.1612 6.59224 16.0215 6.49383 15.9165C6.39542 15.8114 6.26014 15.7497 6.1163 15.7448ZM14.2441 6.92182C14.1012 6.91373 13.9609 6.96186 13.8531 7.05591C13.7453 7.14996 13.6786 7.28247 13.6673 7.42507C13.6636 7.47532 13.2668 12.5026 13.0396 14.6033C12.9586 15.3593 12.5641 15.7336 11.8336 15.7478L11.5426 15.7531C10.6148 15.7696 10.1828 15.7778 9.1463 15.7741H9.1448C9.00151 15.7757 8.86471 15.834 8.76445 15.9364C8.66418 16.0388 8.60865 16.1768 8.61005 16.3201C8.60764 16.4638 8.66238 16.6025 8.76222 16.7059C8.86207 16.8093 8.99886 16.8688 9.14255 16.8713L9.6908 16.8721C10.4558 16.8721 10.7603 16.8661 11.3333 16.8548L11.8531 16.8443C13.1213 16.8211 13.9636 16.0283 14.1038 14.7233C14.3333 12.6083 14.7301 7.56382 14.7338 7.51357C14.7468 7.37027 14.7026 7.22766 14.6108 7.11682C14.5191 7.00597 14.3872 6.93588 14.2441 6.92182Z" fill="#FF5959"/>
</svg>
