<svg width="28" height="29" viewBox="0 0 28 29" fill="none" xmlns="http://www.w3.org/2000/svg">
<g clip-path="url(#clip0_185_5354)">
<path d="M18.9203 14.6367H17.9611L15.2447 10.8633H16.2045L18.9203 14.6367ZM17.7068 14.6367H17.3267L14.6104 10.8633H14.9904L17.7068 14.6367Z" fill="white"/>
<path d="M18.7134 5.06816C18.7603 5.09466 18.812 5.11165 18.8654 5.11816C18.9189 5.12468 18.9732 5.12059 19.0251 5.10613C19.0769 5.09167 19.1255 5.06712 19.1679 5.03389C19.2103 5.00066 19.2457 4.9594 19.2721 4.91246L19.7922 3.99043C19.8192 3.94349 19.8366 3.89167 19.8435 3.83797C19.8504 3.78426 19.8465 3.72972 19.8322 3.67751C19.8179 3.62529 19.7934 3.57643 19.7601 3.53373C19.7268 3.49104 19.6853 3.45536 19.6382 3.42876C19.591 3.40215 19.5391 3.38515 19.4853 3.37873C19.4315 3.37231 19.377 3.37659 19.3249 3.39134C19.2728 3.40608 19.2242 3.431 19.1818 3.46465C19.1393 3.4983 19.104 3.54001 19.0778 3.58738L18.5577 4.50941C18.5043 4.60416 18.4906 4.71625 18.5198 4.82103C18.549 4.92581 18.6187 5.01471 18.7134 5.06816ZM4.62137 6.29688H10.7072C10.8159 6.29688 10.9203 6.25366 10.9972 6.17674C11.0741 6.09982 11.1173 5.9955 11.1173 5.88672C11.1173 5.77794 11.0741 5.67361 10.9972 5.59669C10.9203 5.51978 10.8159 5.47656 10.7072 5.47656H4.62137C4.51259 5.47656 4.40826 5.51978 4.33134 5.59669C4.25442 5.67361 4.21121 5.77794 4.21121 5.88672C4.21121 5.9955 4.25442 6.09982 4.33134 6.17674C4.40826 6.25366 4.51259 6.29688 4.62137 6.29688ZM2.30048 6.29688H2.97095C3.07973 6.29688 3.18406 6.25366 3.26098 6.17674C3.3379 6.09982 3.38111 5.9955 3.38111 5.88672C3.38111 5.77794 3.3379 5.67361 3.26098 5.59669C3.18406 5.51978 3.07973 5.47656 2.97095 5.47656H2.30048C2.1917 5.47656 2.08738 5.51978 2.01046 5.59669C1.93354 5.67361 1.89033 5.77794 1.89033 5.88672C1.89033 5.9955 1.93354 6.09982 2.01046 6.17674C2.08738 6.25366 2.1917 6.29688 2.30048 6.29688ZM6.9422 4.75354H11.4807C11.5895 4.75354 11.6938 4.71033 11.7707 4.63341C11.8477 4.55649 11.8909 4.45216 11.8909 4.34338C11.8909 4.2346 11.8477 4.13028 11.7707 4.05336C11.6938 3.97644 11.5895 3.93323 11.4807 3.93323H6.9422C6.83342 3.93323 6.72909 3.97644 6.65217 4.05336C6.57525 4.13028 6.53204 4.2346 6.53204 4.34338C6.53204 4.45216 6.57525 4.55649 6.65217 4.63341C6.72909 4.71033 6.83342 4.75354 6.9422 4.75354ZM15.2357 4.91246C15.2891 5.00721 15.378 5.07684 15.4828 5.10605C15.5876 5.13525 15.6997 5.12163 15.7944 5.06818C15.8892 5.01474 15.9588 4.92584 15.988 4.82105C16.0172 4.71626 16.0036 4.60416 15.9502 4.50941L15.4301 3.58738C15.4036 3.54047 15.3682 3.49923 15.3258 3.46601C15.2834 3.4328 15.2348 3.40826 15.1829 3.3938C15.1311 3.37934 15.0768 3.37524 15.0234 3.38173C14.9699 3.38823 14.9182 3.4052 14.8713 3.43166C14.7766 3.48511 14.7069 3.574 14.6777 3.67879C14.6485 3.78358 14.6621 3.89568 14.7156 3.99043L15.2357 4.91246ZM17.2539 5.12109C17.3627 5.12109 17.467 5.07788 17.5439 5.00096C17.6208 4.92404 17.6641 4.81972 17.6641 4.71094V3.50781C17.6641 3.39903 17.6208 3.29471 17.5439 3.21779C17.467 3.14087 17.3627 3.09766 17.2539 3.09766C17.1451 3.09766 17.0408 3.14087 16.9639 3.21779C16.887 3.29471 16.8438 3.39903 16.8438 3.50781V4.71094C16.8438 4.81972 16.887 4.92404 16.9639 5.00096C17.0408 5.07788 17.1451 5.12109 17.2539 5.12109ZM22.6154 22.8398H25.9492C26.4929 22.8392 27.0142 22.623 27.3987 22.2385C27.7831 21.854 27.9994 21.3328 28 20.7891V17.4599C28.0004 17.0293 27.8651 16.6096 27.6134 16.2604C27.3617 15.9111 27.0063 15.65 26.5977 15.5143L22.9674 14.3042L21.0176 10.0146C20.8542 9.65651 20.5914 9.35284 20.2604 9.13973C19.9295 8.92662 19.5443 8.81304 19.1506 8.8125H19.0859V8.07422C19.0859 7.58833 18.8929 7.12235 18.5493 6.77878C18.2058 6.4352 17.7398 6.24219 17.2539 6.24219C16.768 6.24219 16.302 6.4352 15.9585 6.77878C15.6149 7.12235 15.4219 7.58833 15.4219 8.07422V8.8125H2.05078C1.50707 8.81311 0.985796 9.02937 0.601331 9.41383C0.216867 9.7983 0.000607939 10.3196 0 10.8633L0 20.7891C0.000607939 21.3328 0.216867 21.854 0.601331 22.2385C0.985796 22.623 1.50707 22.8392 2.05078 22.8398H2.65027C2.7556 23.7165 3.19369 24.5192 3.87401 25.082H0.410156C0.301376 25.082 0.197051 25.1252 0.120132 25.2022C0.0432128 25.2791 0 25.3834 0 25.4922C0 25.601 0.0432128 25.7053 0.120132 25.7822C0.197051 25.8591 0.301376 25.9023 0.410156 25.9023H27.5898C27.6986 25.9023 27.8029 25.8591 27.8799 25.7822C27.9568 25.7053 28 25.601 28 25.4922C28 25.3834 27.9568 25.2791 27.8799 25.2022C27.8029 25.1252 27.6986 25.082 27.5898 25.082H21.3916C22.0719 24.5192 22.51 23.7165 22.6154 22.8398ZM16.2422 8.07422C16.2422 7.80589 16.3488 7.54856 16.5385 7.35883C16.7282 7.16909 16.9856 7.0625 17.2539 7.0625C17.5222 7.0625 17.7796 7.16909 17.9693 7.35883C18.159 7.54856 18.2656 7.80589 18.2656 8.07422V8.8125H16.2422V8.07422ZM9.65234 9.63281H19.1506C19.3868 9.63314 19.6179 9.70129 19.8165 9.82917C20.0151 9.95704 20.1728 10.1393 20.2708 10.3541L22.2946 14.8065C22.3179 14.8578 22.3516 14.9038 22.3935 14.9416C22.4355 14.9793 22.4847 15.008 22.5382 15.0258L26.3383 16.2925C26.5646 16.3677 26.764 16.5072 26.9123 16.6939C27.0607 16.8806 27.1515 17.1064 27.1737 17.3438H9.65234V9.63281ZM0.820312 10.8633C0.820674 10.5371 0.950429 10.2243 1.18111 9.99361C1.41179 9.76293 1.72455 9.63317 2.05078 9.63281H8.83203V17.3438H0.820312V10.8633ZM2.05078 22.0195C1.72455 22.0192 1.41179 21.8894 1.18111 21.6587C0.950429 21.4281 0.820674 21.1153 0.820312 20.7891V18.1641H27.1797V20.7891C27.1793 21.1153 27.0496 21.4281 26.8189 21.6587C26.5882 21.8894 26.2754 22.0192 25.9492 22.0195H22.6154C22.5153 21.1828 22.1119 20.4119 21.4817 19.8525C20.8514 19.2932 20.038 18.9843 19.1953 18.9843C18.3526 18.9843 17.5392 19.2932 16.909 19.8525C16.2787 20.4119 15.8754 21.1828 15.7753 22.0195H9.49036C9.39025 21.1828 8.98691 20.4119 8.35666 19.8525C7.72641 19.2932 6.91298 18.9843 6.07031 18.9843C5.22765 18.9843 4.41422 19.2932 3.78397 19.8525C3.15372 20.4119 2.75037 21.1828 2.65027 22.0195H2.05078ZM6.07031 25.0547C5.55114 25.0547 5.04362 24.9007 4.61194 24.6123C4.18026 24.3239 3.84381 23.9139 3.64513 23.4342C3.44645 22.9546 3.39446 22.4268 3.49575 21.9176C3.59704 21.4084 3.84704 20.9406 4.21416 20.5735C4.58127 20.2064 5.049 19.9564 5.5582 19.8551C6.0674 19.7538 6.5952 19.8058 7.07486 20.0045C7.55451 20.2032 7.96448 20.5396 8.25292 20.9713C8.54136 21.403 8.69531 21.9105 8.69531 22.4297C8.69453 23.1256 8.41772 23.7929 7.9256 24.285C7.43349 24.7771 6.76627 25.0539 6.07031 25.0547ZM8.26662 25.082C8.94693 24.5192 9.38503 23.7165 9.49036 22.8398H15.7753C15.8806 23.7165 16.3187 24.5192 16.999 25.082H8.26662ZM19.1953 25.0547C18.6761 25.0547 18.1686 24.9007 17.7369 24.6123C17.3053 24.3239 16.9688 23.9139 16.7701 23.4342C16.5714 22.9546 16.5195 22.4268 16.6208 21.9176C16.722 21.4084 16.972 20.9406 17.3392 20.5735C17.7063 20.2064 18.174 19.9564 18.6832 19.8551C19.1924 19.7538 19.7202 19.8058 20.1999 20.0045C20.6795 20.2032 21.0895 20.5396 21.3779 20.9713C21.6664 21.403 21.8203 21.9105 21.8203 22.4297C21.8195 23.1256 21.5427 23.7929 21.0506 24.285C20.5585 24.7771 19.8913 25.0539 19.1953 25.0547ZM19.1953 21.1992C18.9519 21.1992 18.7141 21.2714 18.5117 21.4066C18.3094 21.5418 18.1516 21.734 18.0585 21.9588C17.9654 22.1836 17.941 22.4311 17.9885 22.6697C18.036 22.9084 18.1532 23.1277 18.3252 23.2998C18.4973 23.4718 18.7166 23.589 18.9553 23.6365C19.1939 23.684 19.4414 23.6596 19.6662 23.5665C19.891 23.4734 20.0832 23.3156 20.2184 23.1133C20.3536 22.9109 20.4258 22.6731 20.4258 22.4297C20.4254 22.1035 20.2957 21.7907 20.065 21.56C19.8343 21.3293 19.5215 21.1996 19.1953 21.1992ZM19.1953 22.8398C19.1142 22.8398 19.0349 22.8158 18.9674 22.7707C18.9 22.7257 18.8474 22.6616 18.8164 22.5866C18.7853 22.5117 18.7772 22.4292 18.793 22.3497C18.8089 22.2701 18.8479 22.197 18.9053 22.1397C18.9626 22.0823 19.0357 22.0432 19.1153 22.0274C19.1949 22.0116 19.2773 22.0197 19.3523 22.0508C19.4272 22.0818 19.4913 22.1344 19.5363 22.2018C19.5814 22.2693 19.6055 22.3486 19.6055 22.4297C19.6054 22.5384 19.5621 22.6427 19.4852 22.7196C19.4083 22.7965 19.3041 22.8397 19.1953 22.8398ZM7.05469 12.2578H6.20703V11.4102C6.20674 11.1564 6.10582 10.9132 5.9264 10.7338C5.74699 10.5543 5.50373 10.4534 5.25 10.4531H4.70312C4.44939 10.4534 4.20614 10.5543 4.02672 10.7338C3.84731 10.9132 3.74638 11.1564 3.74609 11.4102V12.2578H2.89844C2.64471 12.2581 2.40145 12.359 2.22203 12.5384C2.04262 12.7179 1.9417 12.9611 1.94141 13.2148V13.7617C1.9417 14.0155 2.04262 14.2587 2.22203 14.4381C2.40145 14.6175 2.64471 14.7185 2.89844 14.7188H3.74609V15.5664C3.74638 15.8201 3.84731 16.0634 4.02672 16.2428C4.20614 16.4222 4.44939 16.5231 4.70312 16.5234H5.25C5.50373 16.5231 5.74699 16.4222 5.9264 16.2428C6.10582 16.0634 6.20674 15.8201 6.20703 15.5664V14.7188H7.05469C7.30842 14.7185 7.55168 14.6175 7.73109 14.4381C7.91051 14.2587 8.01143 14.0155 8.01172 13.7617V13.2148C8.01143 12.9611 7.91051 12.7179 7.73109 12.5384C7.55168 12.359 7.30842 12.2581 7.05469 12.2578ZM7.19141 13.7617C7.19136 13.798 7.17694 13.8327 7.15131 13.8583C7.12568 13.884 7.09093 13.8984 7.05469 13.8984H5.79688C5.68809 13.8984 5.58377 13.9417 5.50685 14.0186C5.42993 14.0955 5.38672 14.1998 5.38672 14.3086V15.5664C5.38668 15.6027 5.37226 15.6374 5.34663 15.663C5.321 15.6887 5.28625 15.7031 5.25 15.7031H4.70312C4.66688 15.7031 4.63213 15.6887 4.6065 15.663C4.58087 15.6374 4.56645 15.6027 4.56641 15.5664V14.3086C4.56641 14.1998 4.52319 14.0955 4.44627 14.0186C4.36935 13.9417 4.26503 13.8984 4.15625 13.8984H2.89844C2.86219 13.8984 2.82744 13.884 2.80181 13.8583C2.77618 13.8327 2.76176 13.798 2.76172 13.7617V13.2148C2.76176 13.1786 2.77618 13.1438 2.80181 13.1182C2.82744 13.0926 2.86219 13.0782 2.89844 13.0781H4.15625C4.26503 13.0781 4.36935 13.0349 4.44627 12.958C4.52319 12.8811 4.56641 12.7767 4.56641 12.668V11.4102C4.56645 11.3739 4.58087 11.3392 4.6065 11.3135C4.63213 11.2879 4.66688 11.2735 4.70312 11.2734H5.25C5.28625 11.2735 5.321 11.2879 5.34663 11.3135C5.37226 11.3392 5.38668 11.3739 5.38672 11.4102V12.668C5.38672 12.7767 5.42993 12.8811 5.50685 12.958C5.58377 13.0349 5.68809 13.0781 5.79688 13.0781H7.05469C7.09093 13.0782 7.12568 13.0926 7.15131 13.1182C7.17694 13.1438 7.19136 13.1786 7.19141 13.2148V13.7617ZM19.4033 10.6907C19.3704 10.6198 19.3179 10.5597 19.252 10.5176C19.1861 10.4755 19.1095 10.4531 19.0312 10.4531H14C13.8912 10.4531 13.7869 10.4963 13.71 10.5733C13.6331 10.6502 13.5898 10.7545 13.5898 10.8633V14.6367C13.5898 14.7455 13.6331 14.8498 13.71 14.9267C13.7869 15.0037 13.8912 15.0469 14 15.0469H20.7812C20.8501 15.0469 20.9179 15.0295 20.9783 14.9964C21.0388 14.9633 21.0899 14.9155 21.1269 14.8575C21.164 14.7994 21.1859 14.7329 21.1905 14.6642C21.1951 14.5955 21.1823 14.5267 21.1533 14.4642L19.4033 10.6907ZM14.4102 14.2266V11.2734H18.7693L20.1389 14.2266H14.4102ZM6.07031 21.1992C5.82695 21.1992 5.58905 21.2714 5.3867 21.4066C5.18435 21.5418 5.02664 21.734 4.93351 21.9588C4.84038 22.1836 4.81601 22.4311 4.86349 22.6697C4.91096 22.9084 5.02816 23.1277 5.20024 23.2998C5.37232 23.4718 5.59157 23.589 5.83026 23.6365C6.06895 23.684 6.31635 23.6596 6.54119 23.5665C6.76603 23.4734 6.9582 23.3156 7.09341 23.1133C7.22862 22.9109 7.30078 22.6731 7.30078 22.4297C7.30042 22.1035 7.17066 21.7907 6.93999 21.56C6.70931 21.3293 6.39654 21.1996 6.07031 21.1992ZM6.07031 22.8398C5.98919 22.8398 5.90989 22.8158 5.84244 22.7707C5.77499 22.7257 5.72242 22.6616 5.69138 22.5866C5.66033 22.5117 5.65221 22.4292 5.66804 22.3497C5.68386 22.2701 5.72293 22.197 5.78029 22.1397C5.83765 22.0823 5.91073 22.0432 5.99029 22.0274C6.06986 22.0116 6.15233 22.0197 6.22727 22.0508C6.30222 22.0818 6.36628 22.1344 6.41135 22.2018C6.45641 22.2693 6.48047 22.3486 6.48047 22.4297C6.48035 22.5384 6.4371 22.6427 6.36021 22.7196C6.28331 22.7965 6.17906 22.8397 6.07031 22.8398Z" fill="white"/>
</g>
<defs>
<clipPath id="clip0_185_5354">
<rect width="28" height="28" fill="white" transform="translate(0 0.5)"/>
</clipPath>
</defs>
</svg>
