<svg width="28" height="29" viewBox="0 0 28 29" fill="none" xmlns="http://www.w3.org/2000/svg">
<mask id="path-1-outside-1_185_5490" maskUnits="userSpaceOnUse" x="0.166748" y="4.98132" width="27" height="19" fill="black">
<rect fill="white" x="0.166748" y="4.98132" width="27" height="19"/>
<path d="M18.6968 5.98178C18.6916 5.98197 18.6865 5.98234 18.6813 5.98293L1.50945 8.41771C1.45888 8.4274 1.41396 8.45614 1.38395 8.49798C1.35394 8.53982 1.34114 8.59156 1.34818 8.64257C1.35523 8.69358 1.38158 8.73994 1.4218 8.77209C1.46202 8.80424 1.51305 8.81966 1.56435 8.81529L3.84529 8.49172V9.99907H2.69226C2.28757 9.99941 1.89957 10.1604 1.61352 10.4467C1.32747 10.733 1.16678 11.1211 1.16675 11.5258V14.7991C1.16647 15.204 1.32703 15.5924 1.61312 15.879C1.8992 16.1655 2.28737 16.3266 2.69226 16.3269H3.19132V19.1787C3.19138 19.4956 3.31731 19.7996 3.54142 20.0237C3.76554 20.2478 4.06949 20.3738 4.38644 20.3738H5.22842C5.27895 21.0883 5.5984 21.757 6.12241 22.2452C6.64641 22.7335 7.33601 23.005 8.05222 23.005C8.76844 23.005 9.45804 22.7335 9.98204 22.2452C10.506 21.757 10.8255 21.0883 10.876 20.3738H12.2124V20.9048H18.1062V20.3738H19.4415C19.4898 21.107 19.8212 21.7926 20.3658 22.2859C20.9104 22.7791 21.6254 23.0413 22.3597 23.0171C23.0941 22.9928 23.7902 22.684 24.301 22.1558C24.8118 21.6277 25.0973 20.9216 25.097 20.1868H26.8334V14.0744L25.1164 8.82659C25.0599 8.65349 24.9502 8.50272 24.8029 8.39571C24.6556 8.2887 24.4782 8.23093 24.2961 8.23073H17.5423V9.999H16.4633V6.70407L18.7362 6.38158C18.7881 6.37506 18.8354 6.34861 18.8681 6.30777C18.9008 6.26693 18.9162 6.21496 18.9112 6.16291C18.9062 6.11085 18.8811 6.06278 18.8412 6.02895C18.8013 5.99511 18.749 5.97826 18.6968 5.98178ZM16.0592 6.76106V9.99907H10.3535V7.56886L16.0592 6.76106ZM9.95249 7.62585V9.99907H4.24673V8.43473L9.95249 7.62585ZM17.9437 8.63302H20.236V14.3069H26.4294V16.115H24.7181C24.6673 16.1184 24.6196 16.141 24.5848 16.1782C24.55 16.2155 24.5306 16.2645 24.5306 16.3155C24.5306 16.3665 24.55 16.4155 24.5848 16.4528C24.6196 16.49 24.6673 16.5127 24.7181 16.5161H26.4294V19.7848H25.0702C24.976 19.09 24.6273 18.455 24.0917 18.0026C23.5561 17.5502 22.8717 17.3126 22.171 17.3358C21.4703 17.3591 20.8032 17.6416 20.2988 18.1285C19.7944 18.6155 19.4887 19.2723 19.4408 19.9717H18.1055V15.9248H2.69158C2.54382 15.9248 2.39752 15.8956 2.26104 15.839C2.12455 15.7824 2.00056 15.6995 1.89613 15.595C1.79171 15.4904 1.7089 15.3663 1.65244 15.2297C1.59598 15.0932 1.56698 14.9469 1.56708 14.7991V11.5259C1.56698 11.3781 1.59599 11.2318 1.65245 11.0953C1.70891 10.9587 1.79171 10.8346 1.89614 10.73C2.00056 10.6255 2.12456 10.5426 2.26104 10.486C2.39753 10.4294 2.54383 10.4003 2.69158 10.4002H17.9437V8.63302ZM20.6371 8.63302H24.2954C24.3926 8.63339 24.4873 8.66442 24.5658 8.72169C24.6444 8.77897 24.7029 8.85956 24.7329 8.95201L26.3542 13.9058H20.6371V8.63302ZM3.59166 16.3269H12.2117V19.9716H10.8753C10.8248 19.2572 10.5053 18.5884 9.98134 18.1002C9.45733 17.6119 8.76774 17.3405 8.05152 17.3405C7.3353 17.3405 6.6457 17.6119 6.1217 18.1002C5.5977 18.5884 5.27824 19.2572 5.22772 19.9716H4.38573C4.28152 19.9717 4.17831 19.9513 4.082 19.9115C3.98569 19.8717 3.89817 19.8133 3.82443 19.7396C3.75069 19.666 3.69218 19.5786 3.65224 19.4823C3.6123 19.3861 3.59171 19.2829 3.59166 19.1787V16.3269ZM12.6128 16.3269H17.7033V20.5025H12.6128V16.3269ZM7.99511 17.7294C8.32 17.7218 8.64312 17.7795 8.94532 17.899C9.24752 18.0185 9.52267 18.1975 9.75448 18.4253C9.98628 18.6531 10.17 18.925 10.2948 19.2251C10.4197 19.5252 10.483 19.8472 10.4811 20.1722C10.486 20.4943 10.4268 20.8141 10.307 21.1131C10.1871 21.4122 10.009 21.6844 9.78292 21.9139C9.55688 22.1434 9.28744 22.3256 8.9903 22.4501C8.69315 22.5745 8.37422 22.6386 8.05208 22.6386C7.72994 22.6386 7.41101 22.5745 7.11387 22.4501C6.81672 22.3256 6.54728 22.1434 6.32124 21.9139C6.09519 21.6844 5.91706 21.4122 5.79719 21.1131C5.67733 20.8141 5.61813 20.4943 5.62305 20.1722C5.61936 19.5354 5.86587 18.9225 6.30951 18.4657C6.75316 18.0088 7.35846 17.7444 7.99511 17.7294ZM22.2082 17.7294C22.5332 17.7217 22.8564 17.7793 23.1588 17.8987C23.4611 18.0182 23.7364 18.1971 23.9683 18.4249C24.2002 18.6527 24.3841 18.9247 24.5089 19.2248C24.6338 19.525 24.6972 19.8471 24.6953 20.1722C24.696 20.4917 24.6337 20.8082 24.5119 21.1037C24.3902 21.3991 24.2113 21.6675 23.9856 21.8937C23.7599 22.1199 23.4919 22.2994 23.1967 22.4218C22.9016 22.5442 22.5852 22.6073 22.2657 22.6073C21.9462 22.6073 21.6298 22.5442 21.3347 22.4218C21.0395 22.2994 20.7714 22.1199 20.5458 21.8937C20.3201 21.6675 20.1412 21.3991 20.0195 21.1037C19.8977 20.8082 19.8354 20.4917 19.8361 20.1722C19.8324 19.5354 20.0789 18.9225 20.5226 18.4657C20.9662 18.0088 21.5716 17.7444 22.2082 17.7294Z"/>
</mask>
<path d="M18.6968 5.98178C18.6916 5.98197 18.6865 5.98234 18.6813 5.98293L1.50945 8.41771C1.45888 8.4274 1.41396 8.45614 1.38395 8.49798C1.35394 8.53982 1.34114 8.59156 1.34818 8.64257C1.35523 8.69358 1.38158 8.73994 1.4218 8.77209C1.46202 8.80424 1.51305 8.81966 1.56435 8.81529L3.84529 8.49172V9.99907H2.69226C2.28757 9.99941 1.89957 10.1604 1.61352 10.4467C1.32747 10.733 1.16678 11.1211 1.16675 11.5258V14.7991C1.16647 15.204 1.32703 15.5924 1.61312 15.879C1.8992 16.1655 2.28737 16.3266 2.69226 16.3269H3.19132V19.1787C3.19138 19.4956 3.31731 19.7996 3.54142 20.0237C3.76554 20.2478 4.06949 20.3738 4.38644 20.3738H5.22842C5.27895 21.0883 5.5984 21.757 6.12241 22.2452C6.64641 22.7335 7.33601 23.005 8.05222 23.005C8.76844 23.005 9.45804 22.7335 9.98204 22.2452C10.506 21.757 10.8255 21.0883 10.876 20.3738H12.2124V20.9048H18.1062V20.3738H19.4415C19.4898 21.107 19.8212 21.7926 20.3658 22.2859C20.9104 22.7791 21.6254 23.0413 22.3597 23.0171C23.0941 22.9928 23.7902 22.684 24.301 22.1558C24.8118 21.6277 25.0973 20.9216 25.097 20.1868H26.8334V14.0744L25.1164 8.82659C25.0599 8.65349 24.9502 8.50272 24.8029 8.39571C24.6556 8.2887 24.4782 8.23093 24.2961 8.23073H17.5423V9.999H16.4633V6.70407L18.7362 6.38158C18.7881 6.37506 18.8354 6.34861 18.8681 6.30777C18.9008 6.26693 18.9162 6.21496 18.9112 6.16291C18.9062 6.11085 18.8811 6.06278 18.8412 6.02895C18.8013 5.99511 18.749 5.97826 18.6968 5.98178ZM16.0592 6.76106V9.99907H10.3535V7.56886L16.0592 6.76106ZM9.95249 7.62585V9.99907H4.24673V8.43473L9.95249 7.62585ZM17.9437 8.63302H20.236V14.3069H26.4294V16.115H24.7181C24.6673 16.1184 24.6196 16.141 24.5848 16.1782C24.55 16.2155 24.5306 16.2645 24.5306 16.3155C24.5306 16.3665 24.55 16.4155 24.5848 16.4528C24.6196 16.49 24.6673 16.5127 24.7181 16.5161H26.4294V19.7848H25.0702C24.976 19.09 24.6273 18.455 24.0917 18.0026C23.5561 17.5502 22.8717 17.3126 22.171 17.3358C21.4703 17.3591 20.8032 17.6416 20.2988 18.1285C19.7944 18.6155 19.4887 19.2723 19.4408 19.9717H18.1055V15.9248H2.69158C2.54382 15.9248 2.39752 15.8956 2.26104 15.839C2.12455 15.7824 2.00056 15.6995 1.89613 15.595C1.79171 15.4904 1.7089 15.3663 1.65244 15.2297C1.59598 15.0932 1.56698 14.9469 1.56708 14.7991V11.5259C1.56698 11.3781 1.59599 11.2318 1.65245 11.0953C1.70891 10.9587 1.79171 10.8346 1.89614 10.73C2.00056 10.6255 2.12456 10.5426 2.26104 10.486C2.39753 10.4294 2.54383 10.4003 2.69158 10.4002H17.9437V8.63302ZM20.6371 8.63302H24.2954C24.3926 8.63339 24.4873 8.66442 24.5658 8.72169C24.6444 8.77897 24.7029 8.85956 24.7329 8.95201L26.3542 13.9058H20.6371V8.63302ZM3.59166 16.3269H12.2117V19.9716H10.8753C10.8248 19.2572 10.5053 18.5884 9.98134 18.1002C9.45733 17.6119 8.76774 17.3405 8.05152 17.3405C7.3353 17.3405 6.6457 17.6119 6.1217 18.1002C5.5977 18.5884 5.27824 19.2572 5.22772 19.9716H4.38573C4.28152 19.9717 4.17831 19.9513 4.082 19.9115C3.98569 19.8717 3.89817 19.8133 3.82443 19.7396C3.75069 19.666 3.69218 19.5786 3.65224 19.4823C3.6123 19.3861 3.59171 19.2829 3.59166 19.1787V16.3269ZM12.6128 16.3269H17.7033V20.5025H12.6128V16.3269ZM7.99511 17.7294C8.32 17.7218 8.64312 17.7795 8.94532 17.899C9.24752 18.0185 9.52267 18.1975 9.75448 18.4253C9.98628 18.6531 10.17 18.925 10.2948 19.2251C10.4197 19.5252 10.483 19.8472 10.4811 20.1722C10.486 20.4943 10.4268 20.8141 10.307 21.1131C10.1871 21.4122 10.009 21.6844 9.78292 21.9139C9.55688 22.1434 9.28744 22.3256 8.9903 22.4501C8.69315 22.5745 8.37422 22.6386 8.05208 22.6386C7.72994 22.6386 7.41101 22.5745 7.11387 22.4501C6.81672 22.3256 6.54728 22.1434 6.32124 21.9139C6.09519 21.6844 5.91706 21.4122 5.79719 21.1131C5.67733 20.8141 5.61813 20.4943 5.62305 20.1722C5.61936 19.5354 5.86587 18.9225 6.30951 18.4657C6.75316 18.0088 7.35846 17.7444 7.99511 17.7294ZM22.2082 17.7294C22.5332 17.7217 22.8564 17.7793 23.1588 17.8987C23.4611 18.0182 23.7364 18.1971 23.9683 18.4249C24.2002 18.6527 24.3841 18.9247 24.5089 19.2248C24.6338 19.525 24.6972 19.8471 24.6953 20.1722C24.696 20.4917 24.6337 20.8082 24.5119 21.1037C24.3902 21.3991 24.2113 21.6675 23.9856 21.8937C23.7599 22.1199 23.4919 22.2994 23.1967 22.4218C22.9016 22.5442 22.5852 22.6073 22.2657 22.6073C21.9462 22.6073 21.6298 22.5442 21.3347 22.4218C21.0395 22.2994 20.7714 22.1199 20.5458 21.8937C20.3201 21.6675 20.1412 21.3991 20.0195 21.1037C19.8977 20.8082 19.8354 20.4917 19.8361 20.1722C19.8324 19.5354 20.0789 18.9225 20.5226 18.4657C20.9662 18.0088 21.5716 17.7444 22.2082 17.7294Z" fill="white"/>
<path d="M18.6968 5.98178C18.6916 5.98197 18.6865 5.98234 18.6813 5.98293L1.50945 8.41771C1.45888 8.4274 1.41396 8.45614 1.38395 8.49798C1.35394 8.53982 1.34114 8.59156 1.34818 8.64257C1.35523 8.69358 1.38158 8.73994 1.4218 8.77209C1.46202 8.80424 1.51305 8.81966 1.56435 8.81529L3.84529 8.49172V9.99907H2.69226C2.28757 9.99941 1.89957 10.1604 1.61352 10.4467C1.32747 10.733 1.16678 11.1211 1.16675 11.5258V14.7991C1.16647 15.204 1.32703 15.5924 1.61312 15.879C1.8992 16.1655 2.28737 16.3266 2.69226 16.3269H3.19132V19.1787C3.19138 19.4956 3.31731 19.7996 3.54142 20.0237C3.76554 20.2478 4.06949 20.3738 4.38644 20.3738H5.22842C5.27895 21.0883 5.5984 21.757 6.12241 22.2452C6.64641 22.7335 7.33601 23.005 8.05222 23.005C8.76844 23.005 9.45804 22.7335 9.98204 22.2452C10.506 21.757 10.8255 21.0883 10.876 20.3738H12.2124V20.9048H18.1062V20.3738H19.4415C19.4898 21.107 19.8212 21.7926 20.3658 22.2859C20.9104 22.7791 21.6254 23.0413 22.3597 23.0171C23.0941 22.9928 23.7902 22.684 24.301 22.1558C24.8118 21.6277 25.0973 20.9216 25.097 20.1868H26.8334V14.0744L25.1164 8.82659C25.0599 8.65349 24.9502 8.50272 24.8029 8.39571C24.6556 8.2887 24.4782 8.23093 24.2961 8.23073H17.5423V9.999H16.4633V6.70407L18.7362 6.38158C18.7881 6.37506 18.8354 6.34861 18.8681 6.30777C18.9008 6.26693 18.9162 6.21496 18.9112 6.16291C18.9062 6.11085 18.8811 6.06278 18.8412 6.02895C18.8013 5.99511 18.749 5.97826 18.6968 5.98178ZM16.0592 6.76106V9.99907H10.3535V7.56886L16.0592 6.76106ZM9.95249 7.62585V9.99907H4.24673V8.43473L9.95249 7.62585ZM17.9437 8.63302H20.236V14.3069H26.4294V16.115H24.7181C24.6673 16.1184 24.6196 16.141 24.5848 16.1782C24.55 16.2155 24.5306 16.2645 24.5306 16.3155C24.5306 16.3665 24.55 16.4155 24.5848 16.4528C24.6196 16.49 24.6673 16.5127 24.7181 16.5161H26.4294V19.7848H25.0702C24.976 19.09 24.6273 18.455 24.0917 18.0026C23.5561 17.5502 22.8717 17.3126 22.171 17.3358C21.4703 17.3591 20.8032 17.6416 20.2988 18.1285C19.7944 18.6155 19.4887 19.2723 19.4408 19.9717H18.1055V15.9248H2.69158C2.54382 15.9248 2.39752 15.8956 2.26104 15.839C2.12455 15.7824 2.00056 15.6995 1.89613 15.595C1.79171 15.4904 1.7089 15.3663 1.65244 15.2297C1.59598 15.0932 1.56698 14.9469 1.56708 14.7991V11.5259C1.56698 11.3781 1.59599 11.2318 1.65245 11.0953C1.70891 10.9587 1.79171 10.8346 1.89614 10.73C2.00056 10.6255 2.12456 10.5426 2.26104 10.486C2.39753 10.4294 2.54383 10.4003 2.69158 10.4002H17.9437V8.63302ZM20.6371 8.63302H24.2954C24.3926 8.63339 24.4873 8.66442 24.5658 8.72169C24.6444 8.77897 24.7029 8.85956 24.7329 8.95201L26.3542 13.9058H20.6371V8.63302ZM3.59166 16.3269H12.2117V19.9716H10.8753C10.8248 19.2572 10.5053 18.5884 9.98134 18.1002C9.45733 17.6119 8.76774 17.3405 8.05152 17.3405C7.3353 17.3405 6.6457 17.6119 6.1217 18.1002C5.5977 18.5884 5.27824 19.2572 5.22772 19.9716H4.38573C4.28152 19.9717 4.17831 19.9513 4.082 19.9115C3.98569 19.8717 3.89817 19.8133 3.82443 19.7396C3.75069 19.666 3.69218 19.5786 3.65224 19.4823C3.6123 19.3861 3.59171 19.2829 3.59166 19.1787V16.3269ZM12.6128 16.3269H17.7033V20.5025H12.6128V16.3269ZM7.99511 17.7294C8.32 17.7218 8.64312 17.7795 8.94532 17.899C9.24752 18.0185 9.52267 18.1975 9.75448 18.4253C9.98628 18.6531 10.17 18.925 10.2948 19.2251C10.4197 19.5252 10.483 19.8472 10.4811 20.1722C10.486 20.4943 10.4268 20.8141 10.307 21.1131C10.1871 21.4122 10.009 21.6844 9.78292 21.9139C9.55688 22.1434 9.28744 22.3256 8.9903 22.4501C8.69315 22.5745 8.37422 22.6386 8.05208 22.6386C7.72994 22.6386 7.41101 22.5745 7.11387 22.4501C6.81672 22.3256 6.54728 22.1434 6.32124 21.9139C6.09519 21.6844 5.91706 21.4122 5.79719 21.1131C5.67733 20.8141 5.61813 20.4943 5.62305 20.1722C5.61936 19.5354 5.86587 18.9225 6.30951 18.4657C6.75316 18.0088 7.35846 17.7444 7.99511 17.7294ZM22.2082 17.7294C22.5332 17.7217 22.8564 17.7793 23.1588 17.8987C23.4611 18.0182 23.7364 18.1971 23.9683 18.4249C24.2002 18.6527 24.3841 18.9247 24.5089 19.2248C24.6338 19.525 24.6972 19.8471 24.6953 20.1722C24.696 20.4917 24.6337 20.8082 24.5119 21.1037C24.3902 21.3991 24.2113 21.6675 23.9856 21.8937C23.7599 22.1199 23.4919 22.2994 23.1967 22.4218C22.9016 22.5442 22.5852 22.6073 22.2657 22.6073C21.9462 22.6073 21.6298 22.5442 21.3347 22.4218C21.0395 22.2994 20.7714 22.1199 20.5458 21.8937C20.3201 21.6675 20.1412 21.3991 20.0195 21.1037C19.8977 20.8082 19.8354 20.4917 19.8361 20.1722C19.8324 19.5354 20.0789 18.9225 20.5226 18.4657C20.9662 18.0088 21.5716 17.7444 22.2082 17.7294Z" stroke="white" stroke-width="0.5" mask="url(#path-1-outside-1_185_5490)"/>
<path d="M3.56083 14.334L16.4854 14.334C16.5718 14.334 16.6547 14.2996 16.7159 14.2385C16.777 14.1773 16.8113 14.0944 16.8113 14.008C16.8113 13.9215 16.777 13.8386 16.7159 13.7775C16.6547 13.7164 16.5718 13.682 16.4854 13.682H3.56083C3.47437 13.682 3.39146 13.7164 3.33034 13.7775C3.26921 13.8386 3.23486 13.9215 3.23486 14.008C3.23486 14.0944 3.26921 14.1773 3.33034 14.2385C3.39146 14.2996 3.47437 14.334 3.56083 14.334Z" fill="white" stroke="white" stroke-width="0.25"/>
</svg>
