<svg width="28" height="29" viewBox="0 0 28 29" fill="none" xmlns="http://www.w3.org/2000/svg">
<path d="M13.853 3.15704C13.9001 3.13566 13.9513 3.1246 14.003 3.1246C14.0548 3.1246 14.1059 3.13566 14.153 3.15704C15.1801 3.64803 16.3179 3.86111 17.453 3.77504L13.853 3.15704ZM13.853 3.15704C12.8244 3.64328 11.6878 3.85613 10.553 3.77504C9.35234 3.67589 8.20612 3.23095 7.25301 2.49404M13.853 3.15704L7.25301 2.49404M7.25301 2.49404C7.18334 2.44186 7.09735 2.41622 7.01048 2.42172C6.92361 2.42722 6.84155 2.4635 6.77901 2.52404L7.25301 2.49404ZM24.078 13.5139L24.0774 13.5122C23.7385 12.5835 23.445 11.6104 23.4696 10.4632C23.4942 9.31735 23.8367 7.98715 24.7879 6.34909C24.8429 6.25539 24.8648 6.14595 24.8502 6.03831C24.8355 5.93066 24.7852 5.83105 24.7072 5.75544C24.7071 5.75537 24.707 5.7553 24.707 5.75523L21.3175 2.43475L21.3175 2.43475L21.3168 2.43407C21.2324 2.3527 21.1219 2.30399 21.0049 2.29663C20.8879 2.28927 20.7721 2.32375 20.6782 2.39391L20.6782 2.39389L20.6766 2.39515C19.7427 3.11719 18.6196 3.55319 17.4432 3.65043C16.33 3.73477 15.2141 3.52577 14.2069 3.04427L14.2069 3.04425L14.2047 3.04322C14.1413 3.01447 14.0726 2.9996 14.003 2.9996C13.9335 2.9996 13.8647 3.01447 13.8014 3.04322L13.8014 3.0432L13.7996 3.04403C12.7906 3.52099 11.6758 3.72983 10.5626 3.65041C9.38626 3.55313 8.26328 3.11714 7.32947 2.39515L7.32948 2.39514L7.32795 2.39399C7.23448 2.32399 7.11913 2.28959 7.00259 2.29697C6.88605 2.30434 6.77595 2.35301 6.69206 2.43424L6.69206 2.43424L6.69165 2.43464L3.29307 5.75524C3.29299 5.75531 3.29292 5.75538 3.29285 5.75545C3.21485 5.83105 3.16448 5.93066 3.14984 6.03831C3.13518 6.14606 3.15715 6.2556 3.21223 6.34936L3.32001 6.28604L3.2118 6.34861C4.15727 7.98386 4.49984 9.31351 4.52554 10.4603C4.55126 11.6083 4.25993 12.5837 3.9196 13.5151L3.91959 13.5151L3.91896 13.517C3.48083 14.7758 3.12468 15.9541 3.11589 17.1425C3.10705 18.3367 3.44863 19.5331 4.38877 20.8314L4.38895 20.8316C6.09931 23.1811 8.77142 24.248 10.8877 25.0922L10.8887 25.0926C11.5227 25.3389 12.104 25.568 12.5813 25.8029C13.0615 26.0393 13.4197 26.2739 13.6205 26.5243L13.6209 26.5248C13.6667 26.5812 13.7244 26.6267 13.79 26.658C13.8556 26.6892 13.9274 26.7055 14 26.7055C14.0727 26.7055 14.1444 26.6892 14.21 26.658C14.2756 26.6267 14.3334 26.5812 14.3791 26.5248L14.3795 26.5243C14.5804 26.2739 14.9386 26.0393 15.419 25.8013C15.8965 25.5648 16.4779 25.3327 17.1122 25.0802L17.1123 25.0801C19.2286 24.236 21.9007 23.1691 23.6111 20.8196L23.6111 20.8196C24.5514 19.5273 24.893 18.3337 24.8838 17.1406C24.8746 15.9532 24.5177 14.7742 24.078 13.5139ZM16.7526 24.173L16.7523 24.1731L16.6821 24.2014C15.5718 24.6481 14.6231 25.0299 14.0007 25.5351C13.6992 25.2865 13.3178 25.0698 12.8807 24.862C12.4275 24.6465 11.907 24.4371 11.3443 24.2107C11.3132 24.1982 11.282 24.1857 11.2507 24.1731L11.2504 24.173C9.21065 23.3577 6.71748 22.3577 5.17904 20.2464C4.36862 19.1339 4.07833 18.1272 4.08963 17.1084C4.101 16.0836 4.41728 15.0385 4.83861 13.8464C5.28251 12.6384 5.55789 11.4863 5.50251 10.242C5.44809 9.01912 5.0747 7.71683 4.24324 6.19201L7.07473 3.42053C8.08694 4.10981 9.2611 4.52531 10.4828 4.62563L10.4836 4.62569C11.6881 4.71675 12.8961 4.50851 14.0002 4.01991C14.9321 4.43016 15.9389 4.64375 16.9576 4.64704H16.958H16.9609C17.1386 4.64704 17.3298 4.64705 17.5251 4.62547C18.744 4.52389 19.9152 4.10855 20.9251 3.42066L23.7451 6.19204C22.9194 7.71689 22.5497 9.017 22.4968 10.238C22.4429 11.4803 22.7175 12.6306 23.1582 13.8399C23.5752 15.04 23.8923 16.0866 23.9055 17.1113C23.9186 18.1296 23.6313 19.1341 22.821 20.2464C21.2825 22.3577 18.7894 23.3577 16.7526 24.173Z" fill="white" stroke="white" stroke-width="0.25"/>
<path d="M14.4637 7.00311L14.4638 7.00336L15.8517 11.276H20.2229V11.273L20.3479 11.273C20.451 11.273 20.5515 11.3056 20.6349 11.3662C20.7183 11.4269 20.7804 11.5124 20.8122 11.6105C20.844 11.7086 20.8439 11.8142 20.8119 11.9123L20.6931 11.8735L20.8119 11.9123C20.78 12.0103 20.7178 12.0956 20.6344 12.1561C20.6343 12.1562 20.6343 12.1562 20.6342 12.1562L16.9998 14.8026L18.3875 19.0746C18.3876 19.0747 18.3876 19.0749 18.3877 19.0751C18.4201 19.173 18.4206 19.2787 18.3892 19.377L18.2702 19.3389L18.3892 19.377C18.3578 19.4754 18.2959 19.5613 18.2124 19.6223C18.129 19.6833 18.0284 19.7163 17.925 19.7164C17.8217 19.7165 17.721 19.6839 17.6374 19.6231L17.6374 19.6231L13.9999 16.9766L10.3624 19.6231L10.3624 19.6231C10.2788 19.6839 10.1781 19.7165 10.0748 19.7164C9.97142 19.7163 9.87078 19.6833 9.78736 19.6223C9.70393 19.5613 9.64203 19.4754 9.61056 19.377C9.57914 19.2787 9.5797 19.1729 9.61214 19.075C9.61219 19.0748 9.61223 19.0747 9.61228 19.0746L11.0029 14.8056L7.36558 12.1592L14.4637 7.00311ZM14.4637 7.00311C14.4317 6.90533 14.3696 6.82016 14.2863 6.75977C14.203 6.69939 14.1028 6.66687 13.9999 6.66687C13.897 6.66687 13.7968 6.69939 13.7135 6.75977C13.6302 6.82016 13.5681 6.90533 13.5361 7.00311L13.536 7.00336M14.4637 7.00311L13.536 7.00336M13.536 7.00336L12.1481 11.276H7.65193C7.65192 11.276 7.65191 11.276 7.6519 11.276C7.54878 11.276 7.44831 11.3086 7.3649 11.3692L7.43839 11.4704M13.536 7.00336L7.43839 11.4704M7.43839 11.4704L7.3649 11.3692C7.28148 11.4299 7.21941 11.5154 7.18761 11.6135C7.1558 11.7116 7.15589 11.8172 7.18787 11.9153C7.21981 12.0132 7.28195 12.0986 7.36536 12.1591L7.43839 11.4704ZM16.1365 14.2196L16.1374 14.2189L18.8442 12.252L15.5003 12.252C15.5003 12.252 15.5002 12.252 15.5002 12.252H15.4999L16.1365 14.2196ZM16.1365 14.2196C16.0538 14.2808 15.9923 14.3664 15.9606 14.4644C15.9289 14.5623 15.9286 14.6677 15.9597 14.7658L15.96 14.7667M16.1365 14.2196L15.96 14.7667M15.96 14.7667L16.996 17.9498M15.96 14.7667L16.996 17.9498M16.996 17.9498L14.2863 15.9828L14.2862 15.9828C14.203 15.9224 14.1027 15.8899 13.9999 15.8899C13.8971 15.8899 13.7968 15.9224 13.7136 15.9828L13.7134 15.9829L11.0065 17.9498L12.0398 14.7666L12.0401 14.7658C12.0712 14.6677 12.0709 14.5623 12.0392 14.4644C12.0075 14.3664 11.946 14.2808 11.8633 14.2196L11.8624 14.2189L9.15557 12.252H12.4998H12.4999L16.996 17.9498Z" fill="white" stroke="white" stroke-width="0.25"/>
</svg>
