<svg width="16" height="17" viewBox="0 0 16 17" fill="none" xmlns="http://www.w3.org/2000/svg">
<path d="M9.6875 13.1842C11.4134 13.1842 12.8125 11.7851 12.8125 10.0592C12.8125 8.33331 11.4134 6.9342 9.6875 6.9342C7.96161 6.9342 6.5625 8.33331 6.5625 10.0592C6.5625 11.7851 7.96161 13.1842 9.6875 13.1842Z" fill="#1F3778"/>
<path d="M15.7252 14.7715L13.1444 12.1907C12.811 12.7293 12.3571 13.1831 11.8186 13.5165L14.3994 16.0974C14.7655 16.4635 15.3591 16.4635 15.7252 16.0974C16.0914 15.7312 16.0914 15.1376 15.7252 14.7715ZM3.12482 0.646545L0.274414 3.49695H3.12482V0.646545ZM2.81232 8.49695H5.93751C6.19276 7.88664 6.59276 7.35142 7.09445 6.93445H2.81232V8.49695Z" fill="#1F3778"/>
<path d="M5.67309 9.4342H2.34375C2.08488 9.4342 1.875 9.22433 1.875 8.96545V6.46545C1.875 6.20658 2.08488 5.9967 2.34375 5.9967H9.6875C10.6296 5.9967 11.4977 6.31908 12.1875 6.8592V1.77795C12.1875 1.00255 11.5567 0.371704 10.7812 0.371704H4.0625V3.96545C4.0625 4.22433 3.85262 4.4342 3.59375 4.4342H0V14.9655C0 15.7409 0.630844 16.3717 1.40625 16.3717H10.7812C11.4794 16.3717 12.0601 15.8602 12.1689 15.1923L10.9102 13.9335C10.5147 14.0585 10.1023 14.122 9.6875 14.1217C8.70266 14.1217 7.79862 13.7693 7.09462 13.1842H2.34375C2.08488 13.1842 1.875 12.9743 1.875 12.7155C1.875 12.4566 2.08488 12.2467 2.34375 12.2467H6.26556C6.07813 11.9545 5.92906 11.6394 5.82203 11.3092H2.34375C2.08488 11.3092 1.875 11.0993 1.875 10.8405C1.875 10.5816 2.08488 10.3717 2.34375 10.3717H5.63691C5.59412 9.9038 5.67309 9.4342 5.67309 9.4342ZM9.84375 5.0592H5.46875C5.20988 5.0592 5 4.84933 5 4.59045C5 4.33158 5.20988 4.1217 5.46875 4.1217H9.84375C10.1026 4.1217 10.3125 4.33158 10.3125 4.59045C10.3125 4.84933 10.1026 5.0592 9.84375 5.0592ZM9.84375 3.1842H5.46875C5.20988 3.1842 5 2.97433 5 2.71545C5 2.45658 5.20988 2.2467 5.46875 2.2467H9.84375C10.1026 2.2467 10.3125 2.45658 10.3125 2.71545C10.3125 2.97433 10.1026 3.1842 9.84375 3.1842Z" fill="#1F3778"/>
</svg>
