<svg width="20" height="20" viewBox="0 0 20 20" fill="none" xmlns="http://www.w3.org/2000/svg">
<path d="M5.00002 6.66668L6.7991 8.16591C8.32963 9.44135 9.0949 10.0791 10 10.0791C10.9051 10.0791 11.6704 9.44135 13.2009 8.16591L15 6.66668M8.33335 16.6667H11.6667C14.8094 16.6667 16.3807 16.6667 17.357 15.6904C18.3334 14.7141 18.3334 13.1427 18.3334 10C18.3334 6.85731 18.3334 5.28596 17.357 4.30965C16.3807 3.33334 14.8094 3.33334 11.6667 3.33334H8.33335C5.19066 3.33334 3.61931 3.33334 2.643 4.30965C1.66669 5.28596 1.66669 6.85731 1.66669 10C1.66669 13.1427 1.66669 14.7141 2.643 15.6904C3.61931 16.6667 5.19066 16.6667 8.33335 16.6667Z" stroke="#A7A7A7" stroke-width="1.5" stroke-linecap="round"/>
</svg>
