<svg width="24" height="25" viewBox="0 0 24 25" fill="none" xmlns="http://www.w3.org/2000/svg">
<path fill-rule="evenodd" clip-rule="evenodd" d="M3.71964 6.66358L6.19042 10.7501L6.36668 10.6503C6.65168 10.489 6.85464 10.228 6.93855 9.91483C7.02105 9.60686 6.97746 9.28718 6.81667 9.01389L5.62042 6.98374C5.39261 6.59749 4.97777 6.38093 4.55167 6.38093C4.34167 6.38093 4.12933 6.43342 3.93527 6.54311C3.85933 6.58624 3.78808 6.62608 3.71964 6.66358ZM11.5534 3.9003L10.6928 3.03968C10.6667 3.01349 10.6357 2.99271 10.6016 2.97853C10.5675 2.96435 10.531 2.95705 10.494 2.95705C10.4571 2.95705 10.4205 2.96435 10.3864 2.97853C10.3523 2.99271 10.3213 3.01349 10.2953 3.03968C10.2691 3.06573 10.2483 3.0967 10.2341 3.13081C10.2199 3.16491 10.2126 3.20149 10.2126 3.23843C10.2126 3.27536 10.2199 3.31194 10.2341 3.34605C10.2483 3.38015 10.2691 3.41112 10.2953 3.43718L11.1559 4.29827C11.2087 4.35076 11.2802 4.38024 11.3546 4.3803C11.4268 4.3803 11.4985 4.35264 11.5534 4.2978C11.5796 4.27175 11.6004 4.24078 11.6145 4.20667C11.6287 4.17256 11.636 4.13599 11.636 4.09905C11.636 4.06211 11.6287 4.02554 11.6145 3.99143C11.6004 3.95732 11.5796 3.92635 11.5534 3.9003ZM14.5961 2.8728V1.65546C14.5961 1.5003 14.4704 1.37421 14.3148 1.37421C14.1596 1.37421 14.0336 1.5003 14.0336 1.65546V2.8728C14.0336 3.02843 14.1596 3.15405 14.3148 3.15405C14.4704 3.15405 14.5961 3.02843 14.5961 2.8728ZM17.2754 4.3803C17.3471 4.3803 17.4193 4.35264 17.4742 4.29827L18.3348 3.43718C18.3875 3.38444 18.4171 3.31296 18.4171 3.23843C18.4171 3.16389 18.3875 3.09241 18.3348 3.03968C18.3087 3.01349 18.2778 2.99271 18.2437 2.97853C18.2096 2.96435 18.173 2.95705 18.1361 2.95705C18.0991 2.95705 18.0625 2.96435 18.0284 2.97853C17.9943 2.99271 17.9634 3.01349 17.9373 3.03968L17.0762 3.9003C17.0369 3.93966 17.0101 3.9898 16.9993 4.04436C16.9885 4.09893 16.9941 4.15548 17.0154 4.20686C17.0368 4.25824 17.0728 4.30215 17.1191 4.33302C17.1654 4.36389 17.2198 4.38034 17.2754 4.3803ZM17.4892 10.6573H11.1217C10.6787 10.6573 10.3187 11.0173 10.3187 11.4603V12.6781H18.2556V11.4237C18.2556 11.0014 17.912 10.6573 17.4892 10.6573ZM11.7756 10.0948H16.8545V6.91108C16.8545 5.51093 15.7154 4.37139 14.3148 4.37139C12.9146 4.37139 11.7756 5.51093 11.7756 6.91108V10.0948ZM12.7848 7.15343C12.7801 7.15343 12.7754 7.15342 12.7707 7.15296C12.7338 7.15116 12.6977 7.14211 12.6643 7.12631C12.6309 7.11051 12.601 7.08827 12.5762 7.06088C12.5514 7.03349 12.5323 7.00149 12.5199 6.96669C12.5075 6.93189 12.5021 6.895 12.504 6.85811C12.556 5.80343 13.239 5.13827 14.4264 4.98546C14.5806 4.96577 14.7217 5.07452 14.7414 5.22874C14.7611 5.38249 14.6523 5.52358 14.4986 5.54327C13.5859 5.66092 13.104 6.11233 13.0656 6.88577C13.062 6.95788 13.0309 7.02586 12.9786 7.07567C12.9264 7.12549 12.857 7.15332 12.7848 7.15343ZM17.6757 16.2411L15.5514 19.3606L19.3712 19.603L18.9348 18.7381C18.9011 18.6706 18.8954 18.5928 18.9198 18.5211C18.9317 18.4857 18.9506 18.4532 18.9753 18.4252C19 18.3973 19.0301 18.3746 19.0637 18.3584L21.4323 17.2123C22.06 16.9081 22.5273 16.3803 22.7495 15.725C22.9679 15.0823 22.9196 14.397 22.6154 13.7947L22.4776 13.52C22.3262 14.5301 21.6831 15.4095 20.7432 15.8651L18.3742 17.0112C18.3078 17.0435 18.2313 17.0483 18.1614 17.0246C18.0915 17.0009 18.0337 16.9506 18.0006 16.8847L17.6757 16.2411ZM12.2664 18.2619C11.9265 17.6853 11.1709 17.488 10.5812 17.8217L10.4954 17.87L12.9657 21.9551C12.9812 21.9462 12.9967 21.9373 13.0131 21.9284C13.2976 21.7672 13.5006 21.5061 13.5845 21.1925C13.667 20.885 13.6239 20.5653 13.4626 20.292L12.2664 18.2619ZM5.70902 11.0408C5.5098 11.2001 5.36683 11.4167 5.2998 11.6666C5.21683 11.9769 5.26042 12.3003 5.42355 12.5769L8.42027 17.6623C8.74136 18.207 9.43558 18.4109 10.0037 18.1437L12.4782 22.2369C12.0123 22.505 11.7142 22.6531 11.0378 22.7942C8.80464 23.2587 5.86464 20.0497 3.94136 16.6625C2.90871 14.8447 2.15402 12.9664 1.81511 11.3736C1.45511 9.67999 1.58261 8.43921 2.18308 7.7853C2.58761 7.34514 2.85293 7.15343 3.22793 6.93733L5.70902 11.0408Z" fill="white"/>
</svg>
