<svg width="17" height="17" viewBox="0 0 17 17" fill="none" xmlns="http://www.w3.org/2000/svg">
<g clip-path="url(#clip0_225_873)">
<path d="M11.4915 15.7971H2.4415H0.916504" stroke="#121614" stroke-miterlimit="10" stroke-linecap="round" stroke-linejoin="round"/>
<path d="M11.4919 15.7971H2.44189V9.42212" stroke="#121614" stroke-miterlimit="10" stroke-linecap="round" stroke-linejoin="round"/>
<path d="M10.2165 5.79708L8.1415 3.72208L2.4415 9.42208C2.0915 9.77208 1.5165 9.77208 1.1665 9.42208C0.991504 9.24708 0.916504 9.02208 0.916504 8.79708C0.916504 8.57208 1.0165 8.34708 1.1665 8.17208L6.8665 2.47208C7.5665 1.77208 8.6915 1.77208 9.3915 2.47208L11.8415 4.92208M8.8915 11.2471V15.7971H5.3415V11.2471C5.3415 10.9721 5.5665 10.7471 5.8415 10.7471H8.4165C8.6665 10.7471 8.8915 10.9721 8.8915 11.2471ZM16.4165 9.12208C16.4165 10.4971 14.5915 13.7971 13.6415 15.4471C13.3665 15.8971 12.7165 15.8971 12.4415 15.4471C11.4665 13.7971 9.6415 10.4971 9.6415 9.12208C9.6415 7.24708 11.1665 5.74708 13.0165 5.74708C14.8665 5.74708 16.4165 7.24708 16.4165 9.12208Z" stroke="#121614" stroke-miterlimit="10" stroke-linecap="round" stroke-linejoin="round"/>
<path d="M13.0413 11.1971C14.1873 11.1971 15.1163 10.268 15.1163 9.12206C15.1163 7.97607 14.1873 7.04706 13.0413 7.04706C11.8953 7.04706 10.9663 7.97607 10.9663 9.12206C10.9663 10.268 11.8953 11.1971 13.0413 11.1971Z" stroke="#121614" stroke-miterlimit="10" stroke-linecap="round" stroke-linejoin="round"/>
<path d="M6.09131 13.1471V13.4721" stroke="#121614" stroke-miterlimit="10" stroke-linecap="round" stroke-linejoin="round"/>
</g>
<defs>
<clipPath id="clip0_225_873">
<rect width="16" height="16" fill="white" transform="translate(0.666504 0.87207)"/>
</clipPath>
</defs>
</svg>
