<svg width="20" height="21" viewBox="0 0 20 21" fill="none" xmlns="http://www.w3.org/2000/svg">
<path d="M1.66669 14.205C1.66669 11.848 1.66669 10.6695 2.39892 9.93728C3.13115 9.20505 4.30966 9.20505 6.66669 9.20505H13.3334C15.6904 9.20505 16.8689 9.20505 17.6011 9.93728C18.3334 10.6695 18.3334 11.848 18.3334 14.205C18.3334 16.5621 18.3334 17.7406 17.6011 18.4728C16.8689 19.205 15.6904 19.205 13.3334 19.205H6.66669C4.30966 19.205 3.13115 19.205 2.39892 18.4728C1.66669 17.7406 1.66669 16.5621 1.66669 14.205Z" stroke="#A7A7A7" stroke-width="1.5"/>
<path d="M5 9.20503V7.53836C5 4.77694 7.23858 2.53836 10 2.53836C12.7614 2.53836 15 4.77694 15 7.53836V9.20503" stroke="#A7A7A7" stroke-width="1.5" stroke-linecap="round"/>
<path d="M7.49998 14.205C7.49998 14.6653 7.12688 15.0384 6.66665 15.0384C6.20641 15.0384 5.83331 14.6653 5.83331 14.205C5.83331 13.7448 6.20641 13.3717 6.66665 13.3717C7.12688 13.3717 7.49998 13.7448 7.49998 14.205Z" fill="#A7A7A7"/>
<path d="M10.8333 14.205C10.8333 14.6653 10.4602 15.0384 9.99998 15.0384C9.53974 15.0384 9.16665 14.6653 9.16665 14.205C9.16665 13.7448 9.53974 13.3717 9.99998 13.3717C10.4602 13.3717 10.8333 13.7448 10.8333 14.205Z" fill="#A7A7A7"/>
<path d="M14.1666 14.205C14.1666 14.6653 13.7936 15.0384 13.3333 15.0384C12.8731 15.0384 12.5 14.6653 12.5 14.205C12.5 13.7448 12.8731 13.3717 13.3333 13.3717C13.7936 13.3717 14.1666 13.7448 14.1666 14.205Z" fill="#A7A7A7"/>
</svg>
