<svg width="21" height="21" viewBox="0 0 21 21" fill="none" xmlns="http://www.w3.org/2000/svg">
<path d="M11.481 5.48555L4.92624 14.1942C4.89325 14.2381 4.87264 14.2902 4.86657 14.3448L4.49849 17.8608C4.49314 17.913 4.50132 17.9657 4.52224 18.0138C4.54316 18.0618 4.57611 18.1037 4.61791 18.1353C4.68206 18.1836 4.76268 18.2044 4.84213 18.1933C4.86663 18.1899 4.89062 18.1834 4.91354 18.1741L8.18823 16.8506C8.23913 16.8299 8.28345 16.7958 8.31643 16.7518L14.872 8.04356L11.481 5.48555ZM16.1972 3.76092L15.2286 3.03027C14.5813 2.54192 13.5922 2.6815 13.1051 3.32871L12.2113 4.51613L15.6022 7.07405L16.4959 5.88666C16.7396 5.56316 16.8426 5.16364 16.7862 4.76207C16.7298 4.36051 16.5205 4.00488 16.1972 3.76092Z" fill="#1F3778"/>
</svg>
