<svg width="24" height="24" viewBox="0 0 24 24" fill="none" xmlns="http://www.w3.org/2000/svg">
<path d="M17.871 11.371H12.629V6.12903C12.629 5.78155 12.3475 5.5 12 5.5C11.6525 5.5 11.371 5.78155 11.371 6.12903V11.371H6.12903C5.78155 11.371 5.5 11.6525 5.5 12C5.5 12.3475 5.78155 12.629 6.12903 12.629H11.371V17.871C11.371 18.2184 11.6525 18.5 12 18.5C12.3475 18.5 12.629 18.2184 12.629 17.871V12.629H17.871C18.2184 12.629 18.5 12.3475 18.5 12C18.5 11.6525 18.2184 11.371 17.871 11.371Z" fill="white"/>
</svg>
