<svg width="21" height="21" viewBox="0 0 21 21" fill="none" xmlns="http://www.w3.org/2000/svg">
<path d="M3 5.69337C3 5.28965 3.28782 4.96238 3.64286 4.96238L5.86306 4.96199C6.30419 4.94928 6.69335 4.63033 6.84345 4.15849C6.8474 4.14608 6.85193 4.13078 6.86821 4.07526L6.96388 3.74886C7.02242 3.54873 7.07342 3.37438 7.14479 3.21854C7.42674 2.60286 7.9484 2.17532 8.55122 2.06586C8.70381 2.03816 8.8654 2.03828 9.05088 2.03841H11.9493C12.1347 2.03828 12.2963 2.03816 12.4489 2.06586C13.0517 2.17532 13.5734 2.60286 13.8554 3.21854C13.9267 3.37438 13.9777 3.54873 14.0363 3.74886L14.1319 4.07526C14.1482 4.13078 14.1527 4.14608 14.1567 4.15849C14.3068 4.63033 14.7732 4.94967 15.2143 4.96238H17.3571C17.7122 4.96238 18 5.28965 18 5.69337C18 6.09708 17.7122 6.42436 17.3571 6.42436H3.64286C3.28782 6.42436 3 6.09708 3 5.69337Z" fill="#E72020"/>
<path fill-rule="evenodd" clip-rule="evenodd" d="M10.163 18.7051H10.837C13.1559 18.7051 14.3154 18.7051 15.0693 17.9668C15.8231 17.2285 15.9003 16.0175 16.0545 13.5955L16.2768 10.1056C16.3605 8.7914 16.4023 8.13432 16.0241 7.71793C15.6459 7.30155 15.0073 7.30155 13.73 7.30155H7.27004C5.99272 7.30155 5.35407 7.30155 4.97588 7.71793C4.59769 8.13432 4.63953 8.7914 4.72323 10.1056L4.94549 13.5955C5.09975 16.0175 5.17687 17.2285 5.93074 17.9668C6.68461 18.7051 7.84407 18.7051 10.163 18.7051ZM13.2052 10.6597C13.2396 10.2982 12.989 9.97578 12.6455 9.93962C12.3021 9.90347 11.9958 10.1672 11.9614 10.5288L11.5448 14.9148C11.5104 15.2763 11.761 15.5987 12.1045 15.6348C12.4479 15.671 12.7542 15.4072 12.7886 15.0457L13.2052 10.6597ZM8.35448 9.93962C8.69794 9.90347 9.00422 10.1672 9.03856 10.5288L9.45523 14.9148C9.48958 15.2763 9.23899 15.5987 8.89552 15.6348C8.55206 15.671 8.24578 15.4072 8.21143 15.0457L7.79477 10.6597C7.76042 10.2982 8.01101 9.97578 8.35448 9.93962Z" fill="#E72020"/>
</svg>
