<svg width="24" height="25" viewBox="0 0 24 25" fill="none" xmlns="http://www.w3.org/2000/svg">
<path d="M12 12.5C14.2091 12.5 16 10.7091 16 8.5C16 6.29086 14.2091 4.5 12 4.5C9.79086 4.5 8 6.29086 8 8.5C8 10.7091 9.79086 12.5 12 12.5Z" fill="white"/>
<path d="M20 19.5V20.5C20 20.7652 19.8946 21.0196 19.7071 21.2071C19.5196 21.3946 19.2652 21.5 19 21.5H5C4.73478 21.5 4.48043 21.3946 4.29289 21.2071C4.10536 21.0196 4 20.7652 4 20.5V19.5C4 17.9087 4.63214 16.3826 5.75736 15.2574C6.88258 14.1321 8.4087 13.5 10 13.5H14C15.5913 13.5 17.1174 14.1321 18.2426 15.2574C19.3679 16.3826 20 17.9087 20 19.5Z" fill="white"/>
</svg>
