<svg width="24" height="25" viewBox="0 0 24 25" fill="none" xmlns="http://www.w3.org/2000/svg">
<g clip-path="url(#clip0_27_5776)">
<path d="M12.0003 17.4219C14.9691 17.4219 17.385 15.2136 17.385 12.5C17.385 9.78641 14.9691 7.57812 12.0003 7.57812C9.03162 7.57812 6.61572 9.78641 6.61572 12.5C6.61572 15.2136 9.03162 17.4219 12.0003 17.4219ZM9.46726 12.0029L11.2311 13.6151L14.5334 10.5966L15.6211 11.5909L11.2311 15.6036L8.37957 12.9971L9.46726 12.0029Z" fill="white"/>
<path d="M12 24.5C12.1538 24.3821 22 22.0456 22 12.5V3.3125H19.4287C14.1299 3.3125 12.3629 0.688063 12 0.5C11.6564 0.677984 9.84236 3.3125 4.57128 3.3125H2V12.5C2 22.0453 11.8462 24.3821 12 24.5ZM12 6.125C15.8175 6.125 18.9231 9.01058 18.9231 12.5C18.9231 15.9894 15.8175 18.8281 12 18.8281C8.18251 18.8281 5.07692 15.9894 5.07692 12.5C5.07692 9.01058 8.18251 6.125 12 6.125Z" fill="white"/>
</g>
<defs>
<clipPath id="clip0_27_5776">
<rect width="24" height="24" fill="white" transform="translate(0 0.5)"/>
</clipPath>
</defs>
</svg>
