<svg width="24" height="25" viewBox="0 0 24 25" fill="none" xmlns="http://www.w3.org/2000/svg">
<g clip-path="url(#clip0_185_5606)">
<path d="M11.172 4.78572C11.172 2.42257 9.24944 0.5 6.8863 0.5C4.52316 0.5 2.60059 2.42257 2.60059 4.78572C2.60059 7.14886 4.52316 9.07143 6.8863 9.07143C9.24944 9.07143 11.172 7.14886 11.172 4.78572ZM23.568 12.6131L17.568 9.18457C17.4385 9.11061 17.292 9.07171 17.1429 9.07171C16.9938 9.07171 16.8472 9.11061 16.7177 9.18457L10.7177 12.6131C10.5865 12.6881 10.4775 12.7964 10.4016 12.927C10.3258 13.0577 10.2858 13.2061 10.2857 13.3571C10.2857 17.2006 11.9914 20.6026 15.2152 23.1937L16.6054 24.3106C16.7577 24.4333 16.9473 24.5002 17.1429 24.5002C17.3384 24.5002 17.5281 24.4333 17.6803 24.3106L19.0697 23.1937C22.2952 20.6026 24 17.2006 24 13.3571C24 13.2061 23.96 13.0577 23.8841 12.927C23.8083 12.7964 23.6992 12.6881 23.568 12.6131ZM20.4 14.7286L17.8286 18.1571C17.7552 18.2557 17.6613 18.3373 17.5535 18.3963C17.4457 18.4553 17.3264 18.4904 17.2038 18.4991C17.0811 18.5078 16.9581 18.49 16.843 18.4468C16.7279 18.4036 16.6235 18.3361 16.5369 18.2489L14.8226 16.5346C14.7407 16.4555 14.6754 16.3609 14.6305 16.2563C14.5856 16.1518 14.5619 16.0393 14.5609 15.9255C14.56 15.8117 14.5816 15.6988 14.6247 15.5935C14.6678 15.4881 14.7315 15.3924 14.812 15.3119C14.8924 15.2315 14.9881 15.1678 15.0935 15.1247C15.1988 15.0816 15.3117 15.0599 15.4255 15.0609C15.5393 15.0619 15.6518 15.0856 15.7564 15.1305C15.8609 15.1754 15.9555 15.2407 16.0346 15.3226L17.0503 16.3383L19.0286 13.7C19.0961 13.61 19.1807 13.5341 19.2776 13.4767C19.3745 13.4194 19.4817 13.3817 19.5931 13.3658C19.7045 13.3498 19.818 13.356 19.927 13.384C20.0361 13.4119 20.1385 13.461 20.2286 13.5286C20.3186 13.5961 20.3945 13.6807 20.4519 13.7776C20.5092 13.8744 20.5469 13.9816 20.5628 14.0931C20.5788 14.2045 20.5726 14.318 20.5446 14.427C20.5167 14.5361 20.4676 14.6385 20.4 14.7286Z" fill="white"/>
<path d="M10.2934 11.8692L12.63 10.5329C11.844 9.64404 10.7066 9.07147 9.426 9.07147H4.28829C1.92343 9.07147 0 10.9872 0 13.3426V19.3572C0 19.5845 0.0903058 19.8025 0.251051 19.9633C0.411797 20.124 0.629814 20.2143 0.857143 20.2143H11.3957C10.0991 18.1631 9.41656 15.7838 9.42857 13.3572C9.42857 12.7426 9.76029 12.1726 10.2934 11.8692Z" fill="white"/>
</g>
<defs>
<clipPath id="clip0_185_5606">
<rect width="24" height="24" fill="white" transform="translate(0 0.5)"/>
</clipPath>
</defs>
</svg>
