<svg width="24" height="25" viewBox="0 0 24 25" fill="none" xmlns="http://www.w3.org/2000/svg">
<g clip-path="url(#clip0_225_1654)">
<path d="M12 24.3721C5.4 24.3721 0 18.9721 0 12.3721C0 5.77207 5.4 0.37207 12 0.37207C14.7 0.37207 17.22 1.27207 19.38 2.89207C19.62 3.07207 19.68 3.49207 19.5 3.73207C19.32 3.97207 18.9 4.03207 18.66 3.85207C16.74 2.35207 14.4 1.57207 12 1.57207C6.06 1.57207 1.2 6.43207 1.2 12.3721C1.2 18.3121 6.06 23.1721 12 23.1721C17.94 23.1721 22.8 18.3121 22.8 12.3721C22.8 10.4521 22.26 8.53207 21.3 6.85207C21.12 6.55207 21.24 6.19207 21.48 6.01207C21.78 5.83207 22.14 5.95207 22.32 6.19207C23.4 8.11207 24 10.2121 24 12.3721C24 18.9721 18.6 24.3721 12 24.3721Z" fill="white"/>
<path d="M9.24802 6.373C8.57188 6.34631 8 6.89776 8 7.57376V8.37427C8 8.42683 8.01035 8.47887 8.03047 8.52743C8.05058 8.57599 8.08006 8.62012 8.11723 8.65729C8.1544 8.69446 8.19852 8.72395 8.24708 8.74406C8.29564 8.76417 8.34769 8.77452 8.40025 8.77452C8.45282 8.77452 8.50486 8.76417 8.55342 8.74406C8.60199 8.72395 8.64611 8.69446 8.68328 8.65729C8.72044 8.62012 8.74993 8.57599 8.77004 8.52743C8.79015 8.47887 8.80051 8.42683 8.80051 8.37427V7.57376C8.80051 7.34069 8.98331 7.16434 9.21553 7.17351C9.28159 7.17578 9.34782 7.19467 9.40606 7.22961L17.4097 12.0312C17.6849 12.1963 17.6849 12.5543 17.4097 12.7194L9.40606 17.521C9.12307 17.6908 8.80051 17.5072 8.80051 17.1769V10.7743C8.80051 10.7217 8.79015 10.6697 8.77004 10.6211C8.74993 10.5726 8.72044 10.5284 8.68328 10.4913C8.64611 10.4541 8.60199 10.4246 8.55342 10.4045C8.50486 10.3844 8.45282 10.374 8.40025 10.374C8.34769 10.374 8.29564 10.3844 8.24708 10.4045C8.19852 10.4246 8.1544 10.4541 8.11723 10.4913C8.08006 10.5284 8.05058 10.5726 8.03047 10.6211C8.01035 10.6697 8 10.7217 8 10.7743V17.1769C8 18.0895 9.03377 18.676 9.81665 18.2063L17.8202 13.4047C18.5826 12.9474 18.5826 11.8032 17.8202 11.3459L9.81665 6.54433C9.64476 6.44118 9.45009 6.38097 9.24802 6.373Z" fill="white"/>
</g>
<defs>
<clipPath id="clip0_225_1654">
<rect width="24" height="24" fill="white" transform="translate(0 0.37207)"/>
</clipPath>
</defs>
</svg>
