<svg width="20" height="20" viewBox="0 0 20 20" fill="none" xmlns="http://www.w3.org/2000/svg">
<rect width="20" height="20" fill="#1E1E1E"/>
<g id="Section 1">
<path d="M-164 -1476C-164 -1477.1 -163.105 -1478 -162 -1478H6822C6823.1 -1478 6824 -1477.1 6824 -1476V1989C6824 1990.1 6823.1 1991 6822 1991H-162C-163.104 1991 -164 1990.1 -164 1989V-1476Z" fill="#404040"/>
<path d="M-162 -1477H6822V-1479H-162V-1477ZM6823 -1476V1989H6825V-1476H6823ZM6822 1990H-162V1992H6822V1990ZM-163 1989V-1476H-165V1989H-163ZM-162 1990C-162.552 1990 -163 1989.55 -163 1989H-165C-165 1990.66 -163.657 1992 -162 1992V1990ZM6823 1989C6823 1989.55 6822.55 1990 6822 1990V1992C6823.66 1992 6825 1990.66 6825 1989H6823ZM6822 -1477C6822.55 -1477 6823 -1476.55 6823 -1476H6825C6825 -1477.66 6823.66 -1479 6822 -1479V-1477ZM-162 -1479C-163.657 -1479 -165 -1477.66 -165 -1476H-163C-163 -1476.55 -162.552 -1477 -162 -1477V-1479Z" fill="white" fill-opacity="0.1"/>
<g id="Frame 24" clip-path="url(#clip0_0_1)">
<g id="Frame 35315">
<g id="Frame 35310" filter="url(#filter0_d_0_1)">
<rect x="-60" y="-148" width="400" height="366" rx="12" fill="white" shape-rendering="crispEdges"/>
<g id="Frame 35311">
<g id="Frame 35309">
<g id="Frame 19213">
<rect x="-23.5" y="-17.5" width="327" height="55" rx="11.5" fill="white"/>
<rect x="-23.5" y="-17.5" width="327" height="55" rx="11.5" stroke="#D5DEEB"/>
<g id="Frame 35305">
<g id="Frame 35304">
<g id="svgviewer-output-7 1">
<rect x="-8" y="-8" width="36" height="36" rx="8" fill="#F7F7F7"/>
<g id="Frame">
<g id="Group">
<path id="Vector" d="M15.6569 4.34313C14.1459 2.83219 12.1368 2 10 2C7.86316 2 5.85413 2.83216 4.34313 4.34313C2.83219 5.85413 2 7.86316 2 10C2 12.1368 2.83216 14.1459 4.34313 15.6569C5.85413 17.1678 7.86316 18 10 18C12.1368 18 14.1459 17.1678 15.6569 15.6569C17.1678 14.1459 18 12.1368 18 10C18 7.86316 17.1678 5.85413 15.6569 4.34313ZM5.47203 15.4155C5.73622 13.1426 7.69044 11.3877 10 11.3877C11.2175 11.3877 12.3624 11.8621 13.2236 12.7232C13.9512 13.4508 14.41 14.4009 14.5281 15.4154C13.3013 16.4429 11.7217 17.0625 10 17.0625C8.27831 17.0625 6.69884 16.443 5.47203 15.4155ZM10 10.4221C8.66028 10.4221 7.57019 9.33203 7.57019 7.99231C7.57019 6.65247 8.66031 5.5625 10 5.5625C11.3397 5.5625 12.4298 6.65247 12.4298 7.99231C12.4298 9.33203 11.3397 10.4221 10 10.4221V10.4221ZM15.335 14.6229C15.0941 13.6529 14.5933 12.7669 13.8865 12.0603C13.3103 11.4841 12.6287 11.0519 11.8853 10.781C12.7789 10.1749 13.3673 9.151 13.3673 7.99231C13.3673 6.13562 11.8567 4.625 10 4.625C8.14331 4.625 6.63269 6.13562 6.63269 7.99231C6.63269 9.15162 7.22156 10.1759 8.11597 10.7819C7.432 11.0311 6.79909 11.4165 6.25453 11.9238C5.46594 12.6582 4.91834 13.5946 4.66444 14.6222C3.58913 13.3826 2.9375 11.766 2.9375 10C2.9375 6.10572 6.10572 2.9375 10 2.9375C13.8943 2.9375 17.0625 6.10572 17.0625 10C17.0625 11.7663 16.4106 13.3833 15.335 14.6229Z" fill="#1F3778"/>
</g>
</g>
</g>
</g>
</g>
</g>
</g>
</g>
</g>
</g>
</g>
</g>
<defs>
<filter id="filter0_d_0_1" x="-70" y="-158" width="420" height="386" filterUnits="userSpaceOnUse" color-interpolation-filters="sRGB">
<feFlood flood-opacity="0" result="BackgroundImageFix"/>
<feColorMatrix in="SourceAlpha" type="matrix" values="0 0 0 0 0 0 0 0 0 0 0 0 0 0 0 0 0 0 127 0" result="hardAlpha"/>
<feOffset/>
<feGaussianBlur stdDeviation="5"/>
<feComposite in2="hardAlpha" operator="out"/>
<feColorMatrix type="matrix" values="0 0 0 0 0 0 0 0 0 0 0 0 0 0 0 0 0 0 0.1 0"/>
<feBlend mode="normal" in2="BackgroundImageFix" result="effect1_dropShadow_0_1"/>
<feBlend mode="normal" in="SourceGraphic" in2="effect1_dropShadow_0_1" result="shape"/>
</filter>
<clipPath id="clip0_0_1">
<rect width="430" height="436" fill="white" transform="translate(-60 -218)"/>
</clipPath>
</defs>
</svg>
